PathFileType	4	(X/Y/Z)	C:/Users/beibeiliu/ov580/test_trc\sequence.28_training_dense_left.trc
DataRate	CameraRate	NumFrames	NumMarkers	Units	OrigDataRate	OrigDataStartFrame	OrigNumFrames
120	120	19	19	mm	120	42	333
Frame#	Time	ThumbCMC			ThumbMCP			ThumbIP			ThumbTip			IndexMCP			IndexPIP			IndexTip			MiddleMCP			MiddlePIP			MiddleTip			RingMCP			RingPIP			RingTip			PinkyMCP			PinkyPIP			PinkyTip			BackHand1			BackHand2			BackHand3	
		X0	Y0	Z0	X1	Y1	Z1	X2	Y2	Z2	X3	Y3	Z3	X4	Y4	Z4	X5	Y5	Z5	X6	Y6	Z6	X7	Y7	Z7	X8	Y8	Z8	X9	Y9	Z9	X10	Y10	Z10	X11	Y11	Z11	X12	Y12	Z12	X13	Y13	Z13	X14	Y14	Z14	X15	Y15	Z15	X16	Y16	Z16	X17	Y17	Z17	X18	Y18	Z18	
41	0.341667	-137.037	-29.3671	31.9352	-150.353	-43.6843	12.4316	-155.05	-55.8189	-14.1234	-163.019	-56.0258	-33.9575	-120.572	-18.3661	-31.4905	-119.534	-22.9466	-51.7184	-121.722	-25.3111	-74.3697	-141.059	-4.21977	-43.4249	-160.092	-20.3023	-58.3892	-184.981	-32.3906	-41.9506	-148.397	17.1367	-36.1974	-151.837	8.33943	-59.238	-161.404	-1.3088	-78.7711	-159.476	34.6045	-22.3806	-158.589	38.8145	-39.532	-154.414	49.6753	-56.3291	-140.768	22.5404	8.83062	-140.415	22.8694	34.7158	-125.204	1.92632	26.0367	
42	0.35	-139.684	-27.7092	29.5328	-149.504	-48.184	11.2424	-156.411	-51.176	-14.1717	-164.658	-54.6322	-31.3132	-119.511	-20.0022	-30.0434	-120.264	-24.5537	-55.0019	-120.224	-28.861	-78.2358	-142.801	-6.51813	-43.6679	-163.149	-20.7965	-57.3342	-183.997	-39.0354	-38.2147	-150.635	14.9716	-35.8009	-157.615	10.007	-61.0287	-163.738	-1.63101	-78.7551	-161.681	32.7373	-22.1638	-159.728	36.9999	-39.5489	-154.886	45.3366	-54.4635	-142.45	21.7748	11.7397	-143.836	23.8831	36.0724	-127.664	2.86115	26.0974	
43	0.358333	-140.011	-29.6144	31.7783	-151.185	-45.1902	10.175	-157.096	-53.9455	-9.38433	-167.311	-56.8398	-33.9507	-123.685	-17.466	-32.8587	-119.87	-26.061	-50.9676	-120.628	-28.6374	-72.946	-144.736	-5.70281	-39.776	-164.199	-26.5767	-56.3916	-185.312	-38.1642	-39.1682	-151.472	11.884	-38.7454	-156.965	7.78476	-58.0428	-167.812	-0.914998	-78.8362	-160.613	29.4071	-24.1843	-162.048	35.3529	-38.3158	-157.957	42.8201	-51.6313	-142.581	19.5618	8.91576	-146.407	26.0513	35.6272	-128.12	0.747833	26.9537	
44	0.366667	-142.684	-26.231	33.7837	-151.939	-49.4475	11.4818	-156.737	-57.8377	-13.8399	-166.65	-55.3014	-31.878	-124.069	-20.6246	-29.7814	-122.134	-24.9677	-50.3992	-122.457	-29.0188	-75.4166	-144.003	-9.28982	-37.9096	-163.925	-23.7279	-55.4469	-186.689	-41.4463	-38.3323	-154.362	11.6566	-39.1227	-159.083	6.65264	-57.3686	-170.328	-2.76669	-78.1393	-164.011	27.1387	-19.669	-165.246	35.2684	-40.1085	-159.176	41.7186	-56.4378	-145.896	19.2338	11.1307	-145.191	20.9706	35.6096	-127.434	-0.0833035	23.892	
45	0.375	-142.819	-28.7659	32.306	-152.13	-48.9958	9.46633	-158.456	-54.8356	-9.09493	-166.036	-59.4379	-27.8611	-124.435	-20.9776	-30.3641	-122.881	-27.1662	-52.7472	-122.691	-30.4883	-74.5168	-146.283	-11.1712	-40.8296	-169.345	-26.2095	-54.4573	-188.202	-42.0114	-39.7002	-152.588	8.37602	-36.2326	-160.124	4.06267	-56.5039	-171.972	-6.36053	-79.1219	-165.881	28.4621	-23.7601	-168.395	33.8497	-38.0271	-162.97	40.1717	-52.1776	-149.635	21.9006	11.3676	-146.151	22.198	37.9274	-130.951	0.811326	26.1559	
46	0.383333	-140.992	-29.7569	30.5527	-150.909	-51.182	11.8692	-156.361	-56.4231	-9.16308	-166.127	-56.3585	-31.4092	-124.773	-19.952	-29.0755	-123.731	-23.221	-50.1028	-125.217	-25.8636	-74.3641	-144.832	-11.4881	-40.8263	-166.801	-28.8643	-56.5748	-188.224	-41.971	-43.2569	-157.576	12.9669	-35.2957	-160.554	3.45855	-57.7068	-172.751	-3.40781	-76.2397	-167.435	28.5779	-24.2408	-167.53	30.0274	-35.7328	-166.683	37.6626	-52.7969	-147.787	18.9018	9.97382	-149.911	22.7696	37.4672	-131.668	0.0591672	25.6215	
47	0.391667	-142.574	-30.8046	32.4312	-151.905	-46.5019	10.7257	-153.555	-60.1785	-11.5802	-162.016	-64.1188	-30.2681	-124.361	-18.9336	-31.8243	-122.834	-24.0047	-49.285	-120.941	-27.2623	-73.8185	-144.367	-7.41538	-38.2088	-162.925	-21.9575	-59.8915	-185.399	-42.4049	-52.5926	-157.822	11.4824	-38.5926	-161.589	3.63036	-57.4089	-172.685	-4.39311	-77.6102	-168.218	25.7868	-21.3782	-170.894	31.4337	-38.8702	-168.532	38.435	-56.7866	-151.974	19.0194	13.1063	-148.349	21.4508	35.0805	-131.734	0.999868	25.9853	
48	0.4	-143.467	-28.6723	34.8646	-150.938	-46.3465	11.8674	-150.69	-60.4987	-10.4228	-157.917	-61.2051	-31.2061	-123.768	-17.52	-29.6805	-122.111	-20.3012	-51.607	-120.379	-24.2586	-73.7796	-143.075	-3.63419	-38.7991	-153.658	-20.0381	-63.8157	-176.94	-39.7657	-67.4327	-155.662	9.5245	-34.354	-164.564	6.28501	-60.0615	-171.589	-9.86507	-78.4446	-170.956	28.9459	-24.6527	-171.289	31.8767	-42.4963	-170.225	37.3216	-55.2467	-152.275	21.5873	12.7953	-151.664	22.2434	33.7868	-135.455	4.76659	26.6385	
49	0.408333	-141.139	-31.538	30.6653	-148.283	-45.7437	11.0661	-148.313	-57.3265	-10.0576	-151.708	-64.9961	-31.1738	-122.774	-16.6287	-32.401	-119.922	-22.0826	-54.3833	-118.427	-26.5386	-74.2137	-138.514	-1.03776	-40.3137	-146.324	-9.39923	-65.6607	-166.807	-24.5525	-84.4876	-156.435	12.4636	-37.2431	-163.383	3.11311	-60.8634	-174.794	-7.56352	-76.9458	-168.653	24.6978	-20.5121	-171.174	28.4264	-40.7594	-173.661	39.4425	-58.1489	-149.829	21.3751	9.77668	-151.378	19.5804	35.729	-134.152	2.81684	25.1785	
50	0.416667	-142.289	-29.2977	34.6569	-145.671	-46.6114	9.57555	-146.837	-55.9487	-10.0768	-147.894	-66.9451	-29.7014	-122.727	-17.402	-27.9299	-120.935	-18.1926	-54.9408	-118.078	-26.2214	-73.4971	-137.724	2.07233	-39.1869	-139.9	-2.19194	-66.0037	-149.643	-9.22351	-88.7149	-156.007	11.854	-35.6119	-167.328	2.82229	-61.2298	-179.166	-14.4696	-75.0883	-172.073	26.7105	-25.9301	-176.253	30.3117	-40.257	-174.511	34.0844	-57.5555	-151.116	21.8093	11.8862	-152.461	24.0551	34.6222	-134.075	4.75766	24.6665	
51	0.425	-141.904	-28.7678	34.1761	-144.412	-48.4734	10.8725	-146.152	-53.6332	-11.5207	-146.698	-63.1611	-34.5041	-122.781	-14.2167	-31.2027	-120.725	-19.4563	-54.3839	-120.754	-25.4135	-77.9617	-136.6	3.39146	-38.6228	-134.345	0.00721665	-61.4923	-141.702	-2.17869	-93.0891	-155.697	9.54021	-37.3087	-166.064	-2.29093	-59.9262	-181.381	-16.1381	-69.4253	-174.602	27.3794	-23.6888	-177.041	27.1632	-45.3317	-177.027	27.5155	-62.2598	-151.08	20.9967	9.95139	-155.791	24.7815	35.0748	-132.284	4.57062	24.2712	
52	0.433333	-141.338	-23.645	30.6814	-143.922	-42.8972	11.1083	-141.401	-53.3048	-17.6637	-145.906	-58.5658	-35.4989	-124.326	-10.9409	-31.0702	-122.369	-17.1417	-54.0677	-123.992	-25.3531	-77.7746	-137.059	6.86793	-42.7329	-133.857	2.67059	-61.6939	-134.77	-0.909693	-89.007	-160.933	12.2528	-36.0713	-167.984	-4.22496	-57.9656	-183.91	-23.0655	-65.3455	-175.77	25.9399	-25.8824	-178.472	24.6159	-46.7235	-181.107	28.9656	-65.8232	-152.581	21.1843	8.39453	-156.552	27.1235	37.2479	-132.424	6.14387	22.1896	
53	0.441667	-140.758	-24.4916	33.6024	-140.58	-42.8731	6.63312	-140.37	-52.3677	-16.1846	-145.219	-56.0392	-33.3991	-124.188	-10.2698	-30.2339	-122.614	-18.7674	-54.6181	-123.688	-27.9461	-73.4563	-135.174	4.70755	-41.6751	-135.126	4.02836	-64.9606	-136.517	3.30921	-88.6634	-158.349	7.77399	-38.1447	-170.826	-5.37066	-55.5655	-181.361	-26.0893	-60.7579	-173.603	24.1133	-26.1879	-176.962	21.9417	-46.1286	-179.427	24.807	-63.3164	-155.28	26.3469	12.2381	-156.461	26.6456	35.5584	-132.495	7.15907	22.599	
54	0.45	-139.319	-22.8792	29.5416	-141.532	-40.4907	9.58535	-139.623	-51.0785	-13.9043	-143.511	-56.1172	-31.8765	-125.249	-9.63258	-31.5521	-124.296	-19.9319	-57.6403	-127.419	-29.9359	-73.7542	-140.732	8.97965	-40.4416	-137.649	3.59508	-65.383	-137.095	2.98383	-89.4099	-164.441	9.78775	-37.0018	-176.314	-9.05183	-55.798	-183.8	-30.6194	-55.9306	-176.846	23.4795	-29.2135	-179.825	21.1127	-46.1728	-181.815	19.7324	-64.6644	-156.747	26.401	9.7034	-162.008	26.507	36.0475	-136.242	7.59071	23.8423	
55	0.458333	-142.367	-20.3363	30.3769	-140.773	-41.0053	7.53808	-140.745	-48.3624	-12.6252	-139.023	-60.9669	-31.8928	-127.953	-8.04705	-30.5407	-129.222	-20.059	-55.1625	-133.867	-33.2144	-73.9487	-140.56	7.84723	-40.1782	-138.338	4.23312	-64.6942	-141.922	5.20205	-85.8022	-162.606	8.31619	-35.5558	-177.057	-13.1509	-55.5926	-185.214	-33.4139	-53.5409	-179.637	23.9994	-28.0215	-180.085	19.7292	-44.2274	-186.617	19.3586	-67.3044	-157.522	23.6848	10.409	-159.834	25.2824	34.2179	-137.792	11.5483	26.4883	
56	0.466667	-140.737	-20.5407	28.8038	-139.841	-41.1221	8.53767	-137.014	-51.4803	-12.0084	-136.357	-61.8868	-27.173	-128.062	-10.3477	-33.427	-131.023	-23.3457	-54.0297	-137.129	-37.3965	-70.3311	-142.146	8.4936	-42.737	-143.116	5.06894	-66.5295	-145.544	4.83711	-90.4296	-165.54	7.70733	-35.9247	-178.769	-14.8258	-53.8798	-185.318	-38.5064	-49.8381	-179.125	21.76	-25.383	-181.78	18.808	-43.5543	-187.308	18.7987	-65.5437	-161.014	27.259	5.36871	-164.128	28.7119	35.9287	-138.523	9.64043	22.1134	
57	0.475	-144.125	-19.0086	32.123	-142.67	-37.6346	10.6684	-140.04	-47.2985	-13.3021	-137.231	-58.2792	-27.4494	-130.933	-13.4994	-35.7192	-137.614	-24.9023	-55.2129	-145.795	-42.708	-69.5987	-144.758	9.17515	-43.0079	-145.323	5.31749	-62.517	-147.3	2.25108	-91.7248	-167.034	5.36048	-40.781	-176.907	-15.0653	-54.0123	-185.766	-35.3927	-49.6457	-181.695	22.6848	-27.5032	-186.176	20.3303	-48.075	-187.763	20.6952	-64.7622	-163.657	25.7276	7.63743	-161.372	26.2419	34.1926	-140.885	12.2653	23.8641	
58	0.483333	-142.306	-21.6934	33.6044	-143.458	-37.952	10.4707	-139.227	-48.6855	-8.06004	-135.423	-59.5747	-26.9712	-132.782	-12.5257	-32.7842	-140.086	-26.5041	-52.4155	-154.059	-47.5221	-66.9169	-146.789	8.35642	-40.1469	-146.952	2.1727	-67.3713	-147.894	-0.323724	-91.3527	-168.29	7.59167	-37.3585	-179.844	-15.2244	-52.32	-186.94	-35.688	-48.0516	-182.897	23.1091	-28.0357	-184.028	18.8813	-45.802	-187.584	17.6299	-66.9976	-159.829	23.7396	6.19744	-165.126	26.8466	35.0949	-141.758	12.9167	22.5464	
59	0.491667	-143.378	-22.5268	35.058	-144.118	-38.8714	11.0324	-140.238	-48.8839	-8.4568	-137.54	-58.1763	-27.6325	-132.825	-17.1231	-35.1488	-141.594	-34.5939	-51.8203	-156.527	-47.3516	-59.7043	-146.909	8.03876	-42.9486	-146.033	2.09198	-62.7271	-151.734	-0.297079	-88.0774	-169.16	5.78745	-39.5342	-178.576	-17.811	-50.8293	-190.949	-40.192	-43.805	-182.542	22.014	-25.6028	-186.506	18.2482	-49.4585	-187.226	15.2794	-63.9545	-164.618	27.1999	10.4334	-165.748	28.823	34.7453	-139.159	10.3343	24.3596	
